<?xml version="1.0" standalone="no"?>
<!DOCTYPE svg PUBLIC "-//W3C//DTD SVG 1.1//EN"
"http://www.w3.org/Graphics/SVG/1.1/DTD/svg11.dtd">

<svg width="394" height="515" view_box="0 0 394 515"
xmlns="http://www.w3.org/2000/svg"
xmlns:link="http://www.w3.org/1999/xlink">\n\n<desc>Généré par Mocodo 2.3.7 le Mon, 28 Jun 2021 13:07:03</desc>

<rect id="frame" x="0" y="0" width="394" height="515" fill="#ffffff" stroke="none" stroke-width="0"/>

<!-- Association register -->
<line x1="45" y1="472" x2="158" y2="472" stroke="#878787" stroke-width="2"/>
<text x="84" y="489.0" fill="#b2182b" font-family="Verdana" font-size="12">0,N</text>
<line x1="158" y1="295" x2="158" y2="472" stroke="#878787" stroke-width="2"/>
<text x="163.0" y="439" fill="#b2182b" font-family="Verdana" font-size="12">1,1</text>
<g id="association-register">
	<path d="M 175 447 a 14 14 90 0 1 14 14 V 472 h -62 V 461 a 14 14 90 0 1 14 -14" fill="#bababa" stroke="#bababa" stroke-width="0"/>
	<path d="M 189 472.0 v 11 a 14 14 90 0 1 -14 14 H 141 a 14 14 90 0 1 -14 -14 V 472.0 H 62" fill="#e0e0e0" stroke="#e0e0e0" stroke-width="0"/>
	<rect x="127" y="447" width="62" height="50" fill="none" rx="14" stroke="#878787" stroke-width="2"/>
	<line x1="127" y1="472" x2="189" y2="472" stroke="#878787" stroke-width="1"/>
	<text x="134" y="464.7" fill="#000000" font-family="Verdana" font-size="12">register</text>
</g>

<!-- Association associate -->
<line x1="45" y1="118" x2="45" y2="295" stroke="#878787" stroke-width="2"/>
<text x="50.0" y="169" fill="#b2182b" font-family="Verdana" font-size="12">1,N</text>
<line x1="45" y1="472" x2="45" y2="295" stroke="#878787" stroke-width="2"/>
<text x="50.0" y="430" fill="#b2182b" font-family="Verdana" font-size="12">1,1</text>
<g id="association-associate">
	<path d="M 67 270 a 14 14 90 0 1 14 14 V 295 h -72 V 284 a 14 14 90 0 1 14 -14" fill="#bababa" stroke="#bababa" stroke-width="0"/>
	<path d="M 81 295.0 v 11 a 14 14 90 0 1 -14 14 H 23 a 14 14 90 0 1 -14 -14 V 295.0 H 72" fill="#e0e0e0" stroke="#e0e0e0" stroke-width="0"/>
	<rect x="9" y="270" width="72" height="50" fill="none" rx="14" stroke="#878787" stroke-width="2"/>
	<line x1="9" y1="295" x2="81" y2="295" stroke="#878787" stroke-width="1"/>
	<text x="16" y="287.7" fill="#000000" font-family="Verdana" font-size="12">associate</text>
</g>

<!-- Association open -->
<line x1="158" y1="295" x2="45" y2="34" stroke="#878787" stroke-width="2"/>
<text x="86" y="204.670500513" fill="#b2182b" font-family="Verdana" font-size="12">1,N</text>
<line x1="158" y1="34" x2="45" y2="34" stroke="#878787" stroke-width="2"/>
<text x="88" y="51.0" fill="#b2182b" font-family="Verdana" font-size="12">0,N</text>
<g id="association-open">
	<path d="M 54 9 a 14 14 90 0 1 14 14 V 34 h -46 V 23 a 14 14 90 0 1 14 -14" fill="#bababa" stroke="#bababa" stroke-width="0"/>
	<path d="M 68 34.0 v 11 a 14 14 90 0 1 -14 14 H 36 a 14 14 90 0 1 -14 -14 V 34.0 H 46" fill="#e0e0e0" stroke="#e0e0e0" stroke-width="0"/>
	<rect x="22" y="9" width="46" height="50" fill="none" rx="14" stroke="#878787" stroke-width="2"/>
	<line x1="22" y1="34" x2="68" y2="34" stroke="#878787" stroke-width="1"/>
	<text x="29" y="26.7" fill="#000000" font-family="Verdana" font-size="12">open</text>
</g>

<!-- Association have -->
<line x1="158" y1="295" x2="303" y2="295" stroke="#878787" stroke-width="2"/>
<text x="208" y="312.0" fill="#b2182b" font-family="Verdana" font-size="12">1,N</text>
<line x1="303" y1="472" x2="303" y2="295" stroke="#878787" stroke-width="2"/>
<text x="308.0" y="439" fill="#b2182b" font-family="Verdana" font-size="12">0,N</text>
<g id="association-have">
	<path d="M 311 270 a 14 14 90 0 1 14 14 V 295 h -44 V 284 a 14 14 90 0 1 14 -14" fill="#bababa" stroke="#bababa" stroke-width="0"/>
	<path d="M 325 295.0 v 11 a 14 14 90 0 1 -14 14 H 295 a 14 14 90 0 1 -14 -14 V 295.0 H 44" fill="#e0e0e0" stroke="#e0e0e0" stroke-width="0"/>
	<rect x="281" y="270" width="44" height="50" fill="none" rx="14" stroke="#878787" stroke-width="2"/>
	<line x1="281" y1="295" x2="325" y2="295" stroke="#878787" stroke-width="1"/>
	<text x="288" y="287.7" fill="#000000" font-family="Verdana" font-size="12">have</text>
</g>

<!-- Association possess -->
<line x1="303" y1="118" x2="158" y2="118" stroke="#878787" stroke-width="2"/>
<text x="194" y="135.0" fill="#b2182b" font-family="Verdana" font-size="12">0,N</text>
<line x1="158" y1="295" x2="158" y2="118" stroke="#878787" stroke-width="2"/>
<text x="163.0" y="160" fill="#b2182b" font-family="Verdana" font-size="12">1,N</text>
<g id="association-possess">
	<path d="M 175 93 a 14 14 90 0 1 14 14 V 118 h -62 V 107 a 14 14 90 0 1 14 -14" fill="#bababa" stroke="#bababa" stroke-width="0"/>
	<path d="M 189 118.0 v 11 a 14 14 90 0 1 -14 14 H 141 a 14 14 90 0 1 -14 -14 V 118.0 H 62" fill="#e0e0e0" stroke="#e0e0e0" stroke-width="0"/>
	<rect x="127" y="93" width="62" height="50" fill="none" rx="14" stroke="#878787" stroke-width="2"/>
	<line x1="127" y1="118" x2="189" y2="118" stroke="#878787" stroke-width="1"/>
	<text x="134" y="110.7" fill="#000000" font-family="Verdana" font-size="12">possess</text>
</g>

<!-- Entity OPEN_DAYS -->
<g id="entity-OPEN_DAYS">
	<g id="frame-OPEN_DAYS">
		<rect x="115" y="9" width="86" height="25" fill="#f4a582" stroke="#f4a582" stroke-width="0"/>
		<rect x="115" y="34.0" width="86" height="25" fill="#fddbc7" stroke="#fddbc7" stroke-width="0"/>
		<rect x="115" y="9" width="86" height="50" fill="none" stroke="#d6604d" stroke-width="2"/>
		<line x1="115" y1="34" x2="201" y2="34" stroke="#d6604d" stroke-width="1"/>
	</g>
	<text x="120" y="26.7" fill="#000000" font-family="Verdana" font-size="12">OPEN_DAYS</text>
	<text x="120" y="51.8" fill="#000000" font-family="Verdana" font-size="12">days</text>
	<line x1="120" y1="54" x2="149" y2="54" stroke="#000000" stroke-width="1"/>
</g>

<!-- Entity INFORMATION_PAYMENT -->
<g id="entity-INFORMATION_PAYMENT">
	<g id="frame-INFORMATION_PAYMENT">
		<rect x="221" y="93" width="164" height="25" fill="#f4a582" stroke="#f4a582" stroke-width="0"/>
		<rect x="221" y="118.0" width="164" height="25" fill="#fddbc7" stroke="#fddbc7" stroke-width="0"/>
		<rect x="221" y="93" width="164" height="50" fill="none" stroke="#d6604d" stroke-width="2"/>
		<line x1="221" y1="118" x2="385" y2="118" stroke="#d6604d" stroke-width="1"/>
	</g>
	<text x="226" y="110.7" fill="#000000" font-family="Verdana" font-size="12">INFORMATION_PAYMENT</text>
	<text x="226" y="135.8" fill="#000000" font-family="Verdana" font-size="12">payment_types</text>
	<line x1="226" y1="138" x2="320" y2="138" stroke="#000000" stroke-width="1"/>
</g>

<!-- Entity ROLE -->
<g id="entity-ROLE">
	<g id="frame-ROLE">
		<rect x="22" y="84" width="46" height="25" fill="#f4a582" stroke="#f4a582" stroke-width="0"/>
		<rect x="22" y="109.0" width="46" height="43" fill="#fddbc7" stroke="#fddbc7" stroke-width="0"/>
		<rect x="22" y="84" width="46" height="68" fill="none" stroke="#d6604d" stroke-width="2"/>
		<line x1="22" y1="109" x2="68" y2="109" stroke="#d6604d" stroke-width="1"/>
	</g>
	<text x="28" y="101.7" fill="#000000" font-family="Verdana" font-size="12">ROLE</text>
	<text x="27" y="126.8" fill="#000000" font-family="Verdana" font-size="12">name</text>
	<line x1="27" y1="129" x2="62" y2="129" stroke="#000000" stroke-width="1"/>
	<text x="27" y="143.8" fill="#000000" font-family="Verdana" font-size="12">role</text>
</g>

<!-- Entity USER -->
<g id="entity-USER">
	<g id="frame-USER">
		<rect x="11" y="438" width="68" height="25" fill="#f4a582" stroke="#f4a582" stroke-width="0"/>
		<rect x="11" y="463.0" width="68" height="43" fill="#fddbc7" stroke="#fddbc7" stroke-width="0"/>
		<rect x="11" y="438" width="68" height="68" fill="none" stroke="#d6604d" stroke-width="2"/>
		<line x1="11" y1="463" x2="79" y2="463" stroke="#d6604d" stroke-width="1"/>
	</g>
	<text x="28" y="455.7" fill="#000000" font-family="Verdana" font-size="12">USER</text>
	<text x="16" y="480.8" fill="#000000" font-family="Verdana" font-size="12">email</text>
	<line x1="16" y1="483" x2="50" y2="483" stroke="#000000" stroke-width="1"/>
	<text x="16" y="497.8" fill="#000000" font-family="Verdana" font-size="12">password</text>
</g>

<!-- Entity COMMERCIAL_SERVICE -->
<g id="entity-COMMERCIAL_SERVICE">
	<g id="frame-COMMERCIAL_SERVICE">
		<rect x="226" y="447" width="154" height="25" fill="#f4a582" stroke="#f4a582" stroke-width="0"/>
		<rect x="226" y="472.0" width="154" height="25" fill="#fddbc7" stroke="#fddbc7" stroke-width="0"/>
		<rect x="226" y="447" width="154" height="50" fill="none" stroke="#d6604d" stroke-width="2"/>
		<line x1="226" y1="472" x2="380" y2="472" stroke="#d6604d" stroke-width="1"/>
	</g>
	<text x="231" y="464.7" fill="#000000" font-family="Verdana" font-size="12">COMMERCIAL_SERVICE</text>
	<text x="231" y="489.8" fill="#000000" font-family="Verdana" font-size="12">commercial_types</text>
	<line x1="231" y1="492" x2="342" y2="492" stroke="#000000" stroke-width="1"/>
</g>

<!-- Entity STORE -->
<g id="entity-STORE">
	<g id="frame-STORE">
		<rect x="113" y="168" width="90" height="25" fill="#f4a582" stroke="#f4a582" stroke-width="0"/>
		<rect x="113" y="193.0" width="90" height="229" fill="#fddbc7" stroke="#fddbc7" stroke-width="0"/>
		<rect x="113" y="168" width="90" height="254" fill="none" stroke="#d6604d" stroke-width="2"/>
		<line x1="113" y1="193" x2="203" y2="193" stroke="#d6604d" stroke-width="1"/>
	</g>
	<text x="137" y="185.7" fill="#000000" font-family="Verdana" font-size="12">STORE</text>
	<text x="118" y="210.7" fill="#000000" font-family="Verdana" font-size="12">store activity</text>
	<line x1="118" y1="213" x2="197" y2="213" stroke="#000000" stroke-width="1"/>
	<text x="118" y="227.7" fill="#000000" font-family="Verdana" font-size="12">picture</text>
	<text x="118" y="244.7" fill="#000000" font-family="Verdana" font-size="12">name</text>
	<text x="118" y="261.7" fill="#000000" font-family="Verdana" font-size="12">siret</text>
	<text x="118" y="278.7" fill="#000000" font-family="Verdana" font-size="12">address</text>
	<text x="118" y="295.8" fill="#000000" font-family="Verdana" font-size="12">postal_code</text>
	<text x="118" y="312.8" fill="#000000" font-family="Verdana" font-size="12">email</text>
	<text x="118" y="329.8" fill="#000000" font-family="Verdana" font-size="12">phone</text>
	<text x="118" y="346.8" fill="#000000" font-family="Verdana" font-size="12">website</text>
	<text x="118" y="363.8" fill="#000000" font-family="Verdana" font-size="12">open_hours</text>
	<text x="118" y="380.8" fill="#000000" font-family="Verdana" font-size="12">description</text>
	<text x="118" y="397.8" fill="#000000" font-family="Verdana" font-size="12">latitude</text>
	<text x="118" y="414.8" fill="#000000" font-family="Verdana" font-size="12">longitude</text>
</g>
</svg>